<svg width="1280" height="1280" viewBox="0 0 1280 1280" fill="none" xmlns="http://www.w3.org/2000/svg">
  <defs>
    <linearGradient id="bg" x1="0" y1="0" x2="1" y2="1">
      <stop offset="0" stop-color="#1a1a20"/>
      <stop offset="1" stop-color="#060609"/>
    </linearGradient>
    <linearGradient id="red" x1="0" y1="0" x2="1" y2="1">
      <stop offset="0" stop-color="#ff2c2c"/>
      <stop offset="1" stop-color="#b60000"/>
    </linearGradient>
    <radialGradient id="wheel" cx="0" cy="0" r="1" gradientUnits="userSpaceOnUse" gradientTransform="translate(0.5 0.5) scale(0.58)">
      <stop stop-color="#3e444c"/>
      <stop offset="1" stop-color="#0a0c11"/>
    </radialGradient>
  </defs>

  <rect width="1280" height="1280" rx="42" fill="url(#bg)"/>
  <path d="M0 700L1280 220" stroke="url(#red)" stroke-width="34" opacity="0.95"/>
  <path d="M-24 1060C360 940 770 928 1300 1088" stroke="#ff2d2d" stroke-width="28" opacity="0.85"/>
  <text x="90" y="250" fill="#ffffff" fill-opacity="0.09" font-family="Inter, Arial" font-size="250" font-style="italic" font-weight="800">Go</text>

  <circle cx="395" cy="860" r="166" fill="url(#wheel)"/>
  <circle cx="395" cy="860" r="82" fill="#1b1f27" stroke="#b9bec7" stroke-width="13"/>
  <circle cx="902" cy="844" r="144" fill="url(#wheel)"/>
  <circle cx="902" cy="844" r="72" fill="#1b1f27" stroke="#b9bec7" stroke-width="11"/>

  <rect x="326" y="560" width="655" height="205" rx="32" fill="url(#red)"/>
  <rect x="336" y="748" width="630" height="78" rx="24" fill="#12151b"/>
  <path d="M444 526H704L810 612H444V526Z" fill="#2a2f37"/>
  <rect x="483" y="560" width="190" height="115" rx="14" fill="#8a98ab" fill-opacity="0.33"/>
  <rect x="692" y="560" width="133" height="115" rx="14" fill="#8a98ab" fill-opacity="0.29"/>
  <rect x="846" y="448" width="46" height="164" rx="10" fill="#0d1015"/>
  <text x="755" y="713" fill="#fff" font-family="Inter, Arial" font-size="56" font-weight="700">GoRush</text>

  <rect x="1132" y="1180" width="106" height="62" rx="10" fill="#0f1116" opacity="0.8"/>
  <rect x="1144" y="1191" width="25" height="40" fill="#009246"/>
  <rect x="1169" y="1191" width="24" height="40" fill="#fff"/>
  <rect x="1193" y="1191" width="25" height="40" fill="#ce2b37"/>
</svg>
